<svg width="1321" height="562" viewBox="0 0 1321 562" fill="none" xmlns="http://www.w3.org/2000/svg">
<path d="M307.107 51.5485C306.632 48.4099 305.672 45.3361 304.25 42.4043C304.069 41.8499 303.751 41.3331 303.318 40.8869C302.885 40.4407 302.345 40.0748 301.734 39.8126C300.916 39.6348 300.059 39.6268 299.236 39.7892L286.416 41.4295C285.343 41.4705 284.316 41.8043 283.491 42.3799C281.821 43.8482 283.465 46.2126 283.414 48.2383C283.357 50.5163 280.936 52.3652 278.312 52.977C275.632 53.4296 272.868 53.401 270.203 52.8929L252.277 50.5635C257.556 49.1541 262.256 46.5319 265.838 42.9962C268.197 40.6594 269.453 36.2967 266.043 35.1901C265.03 34.9577 263.974 34.8867 262.929 34.981C254.807 35.0339 248.416 29.3635 240.813 26.9754C235.946 25.5457 230.664 25.4393 225.72 26.6715C220.777 27.9037 216.427 30.4112 213.291 33.8356L222.84 34.2206C223.739 34.1792 224.63 34.3778 225.384 34.7879C227.477 36.2257 224.875 38.9874 225.17 41.2388C225.553 44.1639 230.198 44.7884 233.699 45.0842C237.201 45.38 241.642 47.7587 239.958 50.3424C222.36 55.4109 204.452 40.4346 185.97 42.2781C181.292 42.7447 176.875 44.2813 172.308 45.2475C144.41 51.1496 115.569 35.4021 87.0692 38.7371C80.7334 39.6402 74.5064 41.0135 68.4621 42.8405C64.5832 43.9054 60.5374 45.0562 57.7191 47.526C54.9007 49.9957 53.8281 54.2194 56.498 56.8019C49.139 57.3086 41.7308 56.7198 34.6178 55.0628C36.5413 55.9569 38.1415 57.2674 39.2504 58.8569C40.3593 60.4463 40.936 62.2561 40.92 64.0962C29.4298 65.6629 18.2438 68.5148 7.66294 72.5753C9.63773 75.3212 11.9443 77.8904 14.5464 80.2426L0 88.0567C4.91445 89.092 7.45534 94.6954 4.59742 98.195C9.69314 96.2994 12.8512 91.3959 18.3003 90.4017C21.8701 89.7504 25.5025 90.9715 28.889 92.1186C32.2756 93.2656 35.9977 94.3779 39.5035 93.517C43.0093 92.6561 45.5951 88.8551 43.3674 86.4334C58.3521 82.7777 73.8384 80.7546 89.4425 80.4142C90.6464 80.2879 91.8672 80.4817 92.932 80.968C94.9633 82.1463 94.4288 84.6915 94.3194 86.7567C94.21 88.8219 96.135 91.5361 98.3424 90.6052C95.7454 92.4882 97.9655 96.0332 100.457 98.0133C102.949 99.9935 105.952 102.726 104.426 105.302C104.028 105.974 103.353 106.512 102.97 107.19C101.839 109.192 103.634 111.527 105.752 112.856C107.87 114.186 110.463 115.115 111.934 116.957C113.405 118.798 112.737 122.021 110.107 122.278L102.631 114.341C100.076 116.556 98.3254 119.331 97.5805 122.344C105.508 127.763 106.701 138.793 100.064 145.312C96.6719 148.644 91.8486 150.669 87.6389 153.268C83.4293 155.867 79.5339 159.567 79.5445 163.943C79.5628 171.502 78.8242 178.525 82.2118 185.533C88.4586 198.456 95.6708 211.037 103.806 223.203C105.942 226.398 108.703 229.9 113.03 230.45C107.561 219.317 102.638 208.01 98.2602 196.531C101.111 196.54 104.406 196.729 106.078 198.661C107.462 200.26 107.164 202.435 107.595 204.376C108.142 206.257 109.054 208.05 110.295 209.683L136.412 248.584C138.577 251.809 141.06 255.27 145.198 256.576C147.844 257.411 150.905 257.254 153.34 258.456C155.248 259.398 156.534 261.071 158.48 261.958C163.981 264.468 171.632 259.655 176.773 262.651C178.244 263.508 179.179 264.869 180.533 265.85C185.282 269.288 193.072 266.988 198.554 269.553C202.086 271.206 203.917 274.512 205.802 277.509C210.522 285.013 218.159 292.366 228.275 292.964C231.453 293.151 234.699 292.648 237.805 293.239C240.911 293.83 243.968 296.096 243.47 298.727C242.615 303.237 245.28 308.176 244.564 312.703C243.261 320.949 229.272 324.573 228.071 332.83C227.807 334.637 228.219 336.503 227.704 338.273C227.073 340.442 225.126 342.208 224.433 344.363C223.122 348.449 226.622 352.514 230.467 355.263C234.313 358.011 238.9 360.381 241.002 364.229C243.224 368.295 242.133 373.037 242.855 377.467C244.433 387.138 254.423 394.308 264.704 398.93C267.836 400.339 271.199 401.702 273.227 404.146C275.873 407.335 275.609 411.539 276.493 415.35C278.657 424.682 288.053 432.371 288.319 441.875C288.509 448.629 284.018 454.757 281.336 461.131C278.821 467.237 277.911 473.725 278.668 480.153C279.425 486.58 281.831 492.795 285.722 498.374C287.728 501.207 290.128 503.879 291.548 506.95C294.081 512.431 293.259 518.662 295.595 524.204C298.682 531.531 307.167 537.582 306.355 545.321C310.207 552.01 318.713 555.297 327.267 557.287L342.596 560.856C345.532 561.539 348.599 562.227 351.588 561.733C354.576 561.238 357.429 559.163 357.352 556.616C349.834 555.198 342.076 553.691 335.879 549.861C329.682 546.03 325.437 539.209 327.788 533.073C328.879 530.227 331.198 526.942 328.993 524.591C327.73 523.244 325.421 522.893 323.997 521.664C321.776 519.749 322.539 516.53 324.136 514.22C325.733 511.91 328.041 509.846 328.685 507.232C329.01 505.77 328.793 504.26 328.063 502.904C327.332 501.548 326.123 500.412 324.598 499.647C327.441 498.75 330.026 497.363 332.186 495.576C334.181 493.671 335.103 490.733 333.533 488.567C338.194 489.062 343.697 489.304 346.757 486.322C349.201 483.941 349.033 480.382 348.067 477.35C347.102 474.319 345.47 471.374 345.419 468.237C356.172 468.663 366.948 468.358 377.641 467.323C376.095 462.969 372.581 459.289 367.845 457.065C372.688 456.379 377.1 451.531 378.63 447.628C380.16 443.726 379.77 439.475 378.824 435.444C378.461 434.407 378.411 433.31 378.679 432.252C379.225 430.799 380.932 429.912 382.512 429.154L406.551 417.61C407.985 417.009 409.285 416.206 410.395 415.237C412.913 412.763 412.54 409.029 411.251 405.964C409.961 402.9 407.895 400.018 407.399 396.796C405.913 387.16 418.249 380.246 422.413 371.175C424.047 367.615 424.38 363.746 424.696 359.942C425.035 355.857 425.061 351.111 421.309 348.479C417.713 345.955 412.094 346.518 408.331 344.171C404.881 342.019 403.691 337.839 399.922 336.1C396.499 334.522 392.208 335.526 388.401 334.783C381.699 333.476 377.481 327.017 370.636 326.419C366.774 326.081 362.403 327.66 359.237 325.779C356.448 324.122 356.336 320.791 355.805 317.965C354.875 313.572 352.357 309.523 348.59 306.364C344.824 303.204 339.99 301.086 334.74 300.294C330.758 299.76 326.423 299.963 323.036 298.133C319.605 296.28 318.033 292.811 315.338 290.245C310.995 286.11 304.156 284.64 297.749 283.381L271.687 278.258C267.061 277.349 261.098 276.866 258.615 280.255C257.88 281.545 257.36 282.913 257.069 284.322C256.138 286.869 254.266 289.104 251.721 290.706C249.176 292.308 246.09 293.193 242.905 293.236C240.721 290.121 237.182 287.831 233.028 286.846C230.385 286.23 227.556 286.161 225.036 285.255C223.663 284.695 222.442 283.906 221.446 282.938C220.451 281.969 219.702 280.841 219.246 279.622C218.79 278.403 218.636 277.119 218.794 275.849C218.952 274.579 219.419 273.349 220.165 272.234C221.668 269.997 222.248 267.409 221.816 264.869C221.385 262.329 219.965 259.978 217.777 258.18C213.345 254.853 206.934 254.049 200.991 254.382C199.435 251.542 202.037 248.338 204.842 246.274C207.646 244.211 211.052 242.182 211.662 239.1C212.623 234.253 205.226 230.571 199.609 232.016C193.993 233.462 190.408 238.023 188.039 242.52C186.679 245.099 185.523 247.816 183.379 249.992C181.234 252.167 177.78 253.724 174.514 253.026C169.889 252.038 168.103 247.444 167.079 243.545C165.706 238.315 164.325 233.012 164.613 227.662C164.9 222.313 167.057 216.82 171.775 213.199C179.463 207.297 191.256 207.876 201.631 208.817C199.18 206.508 199.786 202.616 202.408 200.442C203.793 199.414 205.456 198.683 207.255 198.314C209.053 197.944 210.932 197.947 212.729 198.322C215.856 198.866 218.672 200.274 220.725 202.32C223.673 205.325 224.512 209.383 226.74 212.795C228.969 216.207 233.98 219.117 238.081 217.286C241.624 215.705 242.186 211.598 241.304 208.322C240.423 205.046 238.55 201.861 238.87 198.514C239.479 192.128 247.396 188.283 254.383 185.653C261.37 183.023 269.37 179.486 270.477 173.146C270.515 171.905 270.795 170.677 271.306 169.511C272.081 168.482 273.158 167.635 274.434 167.051C294.825 155.784 315.555 144.378 338.861 138.221C340.073 137.901 340.216 138.257 341.452 138.006C343.181 137.17 342.035 134.858 340.377 133.927C338.719 132.995 336.503 132.281 336.082 130.648C335.773 129.448 336.618 128.27 336.838 127.056C337.378 124.073 333.11 121.318 329.796 122.511C327.924 120.438 331.628 118.029 334.623 117.34C343.618 115.27 352.851 114.009 362.165 113.578C363.24 113.435 364.341 113.591 365.299 114.023C366.864 114.929 366.664 117.008 365.555 118.301C364.446 119.594 362.722 120.407 361.34 121.501C359.83 122.731 358.754 124.283 358.227 125.99C357.701 127.696 357.746 129.49 358.356 131.177C363.218 133.245 368.505 135.374 373.89 134.646C379.276 133.917 384.056 128.857 381.525 124.816C379.167 121.053 372.086 120.205 370.869 116.08C369.443 111.252 377.618 106.957 375.776 102.228C374.97 100.156 372.501 98.9367 370.606 97.4411C368.368 95.6073 366.846 93.2506 366.24 90.6804C365.633 88.1102 365.97 85.4467 367.207 83.0396C364.121 83.4936 360.95 83.3221 357.959 82.5396C354.969 81.7572 352.246 80.3865 350.02 78.5426C345.91 75.0736 342.63 69.6014 336.793 69.7566C331.436 69.899 326.822 75.1247 321.813 73.5304C320.581 73.1382 319.281 72.3399 318.087 72.8076C317.696 73.0201 317.368 73.3041 317.127 73.6383C316.886 73.9724 316.739 74.3479 316.698 74.7365C315.425 79.8252 317.614 85.6231 314.298 90.0203C310.688 94.8053 302.34 95.4688 297.964 99.7837C295.589 102.126 294.668 105.282 292.485 107.752C290.302 110.221 285.668 111.791 283.048 109.639C284.335 107.426 284.687 104.912 284.045 102.51C283.403 100.108 281.806 97.9584 279.514 96.4136C277.081 95.0865 274.459 94.02 271.709 93.2391C268.636 92.1514 265.712 90.789 262.989 89.1756C261.625 88.4876 260.517 87.4961 259.788 86.3117C259.212 84.8286 259.289 83.222 260.007 81.7827C261.336 78.5976 263.68 75.7765 266.786 73.6239C269.892 71.4712 273.642 70.0689 277.631 69.5682C281.12 69.1714 285.18 69.3112 287.489 67.0886C288.711 65.9126 289.351 64.1346 291.125 63.657C292.259 63.4665 293.436 63.5877 294.481 64.0026L307.502 67.835C308.955 68.3834 310.554 68.6045 312.141 68.4765C312.928 68.3878 313.645 68.0537 314.15 67.5412C314.654 67.0286 314.908 66.3755 314.86 65.7129C314.444 63.9048 311.117 63.0372 311.42 61.2134C311.589 60.6224 311.969 60.0883 312.51 59.6816C317.209 55.4995 322.956 52.2378 329.339 50.1301C335.722 48.0224 342.584 47.1208 349.432 47.49C351.076 49.747 348.476 52.4196 346.314 54.3464C344.151 56.2731 342.413 59.7157 345.028 61.1988C346.1 61.6562 347.293 61.8807 348.495 61.8517C351.701 62.2145 354.817 63.0047 357.723 64.1921C362.223 65.8294 366.636 67.6209 370.963 69.5665C370.581 67.181 370.216 64.6679 371.297 62.4374C372.379 60.2069 375.452 58.4574 378.136 59.3261C380.723 60.1632 382.05 63.0275 384.806 63.2899C388.483 63.6399 389.934 59.0983 388.398 56.2833C386.862 53.4683 383.822 51.1111 383.568 48.0243C383.397 45.9419 384.345 43.3591 382.355 42.0981C381.647 41.7195 380.844 41.4839 380.008 41.4099L330.335 33.7668C327.385 33.3129 323.123 33.6607 322.992 36.1662C322.919 37.5647 324.413 38.9483 323.752 40.2341C323.045 41.6065 320.725 41.481 319.035 41.9665C316.413 42.7196 315.098 45.323 315.35 47.6316C315.811 49.9255 316.873 52.1058 318.461 54.0158C315.23 52.886 310.338 52.6783 307.107 51.5485Z" fill="#9CB0C9" fill-opacity="0.51"/>
<path d="M267.472 16.2909C264.34 15.4241 260.965 15.3838 257.804 16.1753C254.643 16.9667 251.85 18.5518 249.803 20.7155C248.985 21.616 248.298 22.8573 248.983 23.8324C249.965 25.2303 252.466 24.6781 254.31 24.1781C257.021 23.3683 259.971 23.3095 262.725 24.0102C264.457 24.5074 266.006 25.386 267.745 25.8643C268.592 26.1604 269.519 26.2582 270.427 26.1473C271.335 26.0363 272.19 25.7208 272.899 25.2345C274.093 24.2166 274.168 22.6341 274.17 21.2084C274.253 20.7314 274.207 20.2449 274.037 19.7845C273.866 19.3241 273.574 18.9014 273.183 18.5472C272.487 18.21 271.705 18.0166 270.901 17.9828C269.102 17.7043 267.475 16.9095 266.301 15.7353" fill="#9CB0C9" fill-opacity="0.51"/>
<path d="M345.477 5.15667C339.618 6.19831 333.926 7.81503 328.521 9.97321C331.069 10.7923 333.235 12.2742 334.7 14.2006C336.165 16.127 336.851 18.3959 336.658 20.6731C336.429 21.5473 336.455 22.4547 336.735 23.3185C337.358 24.581 339.162 25.0547 340.749 25.3787C343.599 26.1041 346.576 26.4217 349.553 26.3183C351.042 26.2531 352.488 25.8785 353.76 25.2284C355.033 24.5782 356.091 23.673 356.84 22.5947C357.271 21.5713 357.777 20.571 358.355 19.5994C362.158 14.7565 373.456 20.6122 377.539 15.9316C378.977 14.2828 378.845 11.8008 380.72 10.4943C381.69 9.92505 382.814 9.56639 383.991 9.45056C392.202 8.0865 400.496 7.09878 408.836 6.49184C412.788 6.2043 417.938 5.01786 417.971 1.7013C403.087 -0.742971 387.654 0.993045 374.071 6.63945C369.178 8.68895 362.705 13.0001 357.992 10.283C356.227 9.26565 356.314 6.52619 353.885 5.38222C351.401 4.21264 348.114 4.68832 345.477 5.15667Z" fill="#9CB0C9" fill-opacity="0.51"/>
<path d="M394.153 12.7677L401.14 13.8903C399.854 13.8426 398.57 14.0249 397.375 14.4249C396.18 14.8248 395.101 15.4334 394.209 16.2098C393.317 16.9862 392.634 17.9127 392.204 18.9275C391.775 19.9422 391.609 21.0219 391.718 22.0945C398.261 23.9222 405.394 22.1437 412.287 22.3866C419.179 22.6296 427.198 26.7462 426.021 32.4298C425.666 34.1484 424.478 35.8658 425.096 37.5317C425.529 38.6994 426.76 39.5279 427.455 40.6033C428.904 42.8442 427.746 45.6787 425.917 47.7158C424.088 49.7528 421.629 51.3782 420.024 53.5431C416.031 58.9274 418.299 65.8882 420.678 71.9034C421.366 74.1763 422.636 76.2971 424.4 78.1191C427.925 81.2522 433.668 81.5247 438.811 81.5874C442.554 81.6331 446.843 81.4785 449.21 79.0533C452.301 75.887 450.14 70.947 452.174 67.2309C454.023 63.856 458.731 62.4082 462.997 61.3813C470.812 59.5 478.776 57.9007 486.165 55.059C495.339 51.5305 503.914 46.0316 513.997 45.5774C516.826 45.45 519.726 45.7292 522.451 45.0811C525.176 44.4329 527.764 42.4629 527.558 40.1003C527.382 38.0816 525.339 36.5992 523.743 35.0774C522.147 33.5556 520.894 31.2155 522.36 29.6054L548.792 25.4774C546.918 21.208 545.459 15.5851 549.764 12.8061C551.317 11.8034 553.397 11.4027 554.72 10.1905C556.974 8.12446 555.84 4.56554 553.238 2.8085C550.636 1.05146 547.118 0.64358 543.785 0.412079C532.195 -0.392735 520.539 0.139069 508.927 0.671287C486.228 1.71165 463.529 2.75203 440.831 3.79239C436.261 4.00182 430.985 3.68187 426.794 4.98538C423.247 6.08893 420.724 8.11462 416.666 8.82633C409.175 10.1402 400.932 9.25114 394.153 12.7677Z" fill="#9CB0C9" fill-opacity="0.51"/>
<path d="M519.321 58.9457C518.609 58.8515 517.881 58.9896 517.287 59.3314C516.895 59.6928 516.661 60.1553 516.625 60.6427C516.174 62.7934 516.712 65.0072 518.13 66.8408C518.852 67.7402 519.849 68.4616 521.018 68.93C522.186 69.3984 523.483 69.5967 524.774 69.5044C527.92 69.169 530.239 66.9247 533.131 65.8296C537.589 64.1433 556.52 61.5145 543.424 55.5986C538.911 53.5599 535.995 55.3596 532.438 56.7022C528.391 58.4334 523.856 59.2091 519.321 58.9457Z" fill="#9CB0C9" fill-opacity="0.51"/>
<path d="M634.024 9.42793C632.495 9.9503 631.216 10.8814 630.386 12.0758C630.004 12.6823 629.915 13.3884 630.138 14.0481C630.361 14.7078 630.879 15.2706 631.584 15.6199C632.156 15.7931 632.761 15.8734 633.368 15.8566L639.586 16.0119C642.227 16.0779 645.527 16.5482 646.236 18.6766C646.763 20.257 645.584 22.2879 647.007 23.4173C647.618 23.8128 648.352 24.0523 649.122 24.1071C651.17 24.547 653.309 24.6047 655.387 24.2761C659.911 23.2615 657.534 20.9527 658.959 18.897C661.139 15.7515 660.761 17.6556 664.603 15.8529C667.44 14.5215 671.105 12.1065 668.738 8.71325C664.62 2.81254 640.1 6.893 634.024 9.42793Z" fill="#9CB0C9" fill-opacity="0.51"/>
<path d="M772.598 20.1823C767.775 22.4371 763.3 25.177 759.274 28.3409C757.578 29.6743 755.845 31.3326 755.999 33.2751C756.203 35.8569 759.492 37.3544 762.342 38.3632L773.884 42.4491C775.284 40.799 774.002 38.5211 772.555 36.8995C771.108 35.2779 769.388 33.4018 770.028 31.4504C770.757 29.2235 774.005 28.4647 776.727 28.0811C781.164 27.456 793.132 27.5061 791.694 21.5276C790 14.4832 777.051 18.1008 772.598 20.1823Z" fill="#9CB0C9" fill-opacity="0.51"/>
<path d="M770.277 418.835C769.179 421.494 769.074 424.628 770.975 426.95C773.108 429.556 777.376 430.527 781.069 429.866C784.746 429.048 788.024 427.286 790.44 424.828C792.65 422.769 794.468 420.438 795.83 417.916C797.732 413.987 799.073 409.884 799.826 405.693L803.409 389.96C804.21 386.444 804.179 375.664 796.45 379.177C794.339 380.136 789.45 387.712 787.238 389.86C783.25 393.731 782.722 397.488 780.623 402.179C777.993 408.054 772.708 412.95 770.277 418.835Z" fill="#9CB0C9" fill-opacity="0.51"/>
<path d="M1178.48 499.343C1175.95 498.518 1173.5 497.541 1171.14 496.42C1168.77 501.861 1167.51 507.596 1167.41 513.386L1184.72 505.198C1187.32 503.966 1190.27 502.255 1190.22 499.754C1190.24 499.445 1190.16 499.137 1189.99 498.861C1189.83 498.586 1189.57 498.353 1189.26 498.188C1188.87 498.059 1188.46 498.018 1188.05 498.069C1185.48 498.248 1183.14 499.304 1180.72 500.038C1178.3 500.772 1175.47 501.16 1173.25 500.071" fill="#9CB0C9" fill-opacity="0.51"/>
<path d="M1269.77 504.204C1267.87 504.636 1266.01 505.193 1264.22 505.869C1260.25 507.558 1257.55 510.767 1253.97 512.993C1250.55 515.122 1246.44 516.291 1242.39 517.428C1241.21 518.307 1241.75 520.076 1243.04 520.848C1244.43 521.508 1246.02 521.807 1247.61 521.707C1251.81 521.785 1256.23 521.819 1259.91 520.123C1261.98 518.999 1263.92 517.712 1265.7 516.28C1270 513.28 1275.17 511.301 1280.28 509.388C1282.14 508.801 1283.86 507.941 1285.36 506.849C1288.57 504.203 1288.79 500.121 1284.16 499.221C1280.42 498.493 1273.33 503.24 1269.77 504.204Z" fill="#9CB0C9" fill-opacity="0.51"/>
<path d="M1310.1 482.174C1310.31 480.353 1310.02 478.517 1309.26 476.804C1308.49 475.09 1307.27 473.545 1305.69 472.284C1305.64 475.926 1305.51 479.807 1303.06 482.819C1301.31 484.965 1298.57 486.415 1296.66 488.459C1294.75 490.504 1293.9 493.744 1296.14 495.538C1297.58 496.45 1299.32 496.953 1301.12 496.973C1305.59 497.412 1310.76 497.657 1313.89 494.96C1315.6 493.487 1316.43 491.306 1318.52 490.224C1319.29 489.951 1319.99 489.536 1320.55 489.009C1321.41 487.865 1320.04 486.357 1318.5 485.944C1316.96 485.532 1315.26 485.726 1313.72 485.334C1312.17 484.943 1310.75 483.488 1311.54 482.31" fill="#9CB0C9" fill-opacity="0.51"/>
<path d="M1238.42 348.621C1236.07 349.098 1233.65 349.217 1231.25 348.974C1227.28 348.363 1224.18 345.858 1220.97 343.803C1213.34 338.945 1204.07 336.236 1194.48 336.063C1185.76 335.925 1176.95 337.902 1168.39 336.523C1168.95 339.126 1171.61 341.078 1174.45 342.238C1177.3 343.399 1180.43 343.983 1183.29 345.119C1187.86 346.958 1191.49 350.113 1193.51 354.007C1194.42 355.802 1195 357.756 1196.4 359.323C1199.24 362.527 1204.64 363.231 1209.41 362.969C1215.62 362.627 1222.1 361.134 1227.88 363.068C1232.3 364.549 1235.47 367.784 1239.16 370.299C1242.85 372.814 1248.04 374.681 1252.28 372.866C1247.88 371.675 1244.05 369.338 1241.35 366.196C1238.65 363.055 1237.22 359.275 1237.27 355.406C1241.42 355.726 1253.4 355.602 1252.75 349.696C1252.2 344.692 1241.98 348.081 1238.42 348.621Z" fill="#9CB0C9" fill-opacity="0.51"/>
<path d="M1184.04 389.341C1184.78 385.957 1188.81 382.968 1187.56 379.692C1186.69 377.427 1183.55 376.308 1180.7 376.253C1177.86 376.197 1175.06 376.905 1172.22 376.972C1170.37 376.89 1168.51 376.912 1166.66 377.038C1161.02 377.814 1157.54 382.762 1152.22 384.522C1148.98 385.592 1145.35 385.387 1141.98 386.127C1134.34 387.806 1129.51 393.841 1124.17 398.707C1115.54 406.534 1104.3 412.014 1091.91 414.439C1087.57 415.279 1082.9 415.817 1079.45 418.176C1074.87 421.299 1073.75 426.653 1072.73 431.516C1069.92 444.944 1065.63 458.125 1059.9 470.89L1078.04 472.826C1081.49 473.194 1085.06 473.555 1088.39 472.701C1090.8 471.939 1093.09 470.921 1095.19 469.67C1103.27 465.477 1112.31 462.748 1121.73 461.661C1126.47 461.116 1131.45 461.016 1135.91 462.492C1140.37 463.968 1144.19 467.316 1144.57 471.312C1146.49 470.811 1148.55 470.757 1150.51 471.155C1152.47 471.554 1154.27 472.391 1155.7 473.577C1158.54 475.996 1160.4 479.101 1161.02 482.451C1161.5 484.526 1161.97 487.012 1164.28 487.883C1166.16 488.593 1168.31 487.828 1170.37 487.69C1177.34 487.224 1183.12 494.022 1189.98 492.852C1197.33 491.596 1199.13 482.391 1206.3 480.548C1210.42 479.489 1216.2 480.776 1218.17 477.573C1219.91 474.749 1216.44 471.491 1216.8 468.33C1217.24 464.437 1222.73 462.784 1226.97 461.123C1241.56 455.397 1248.49 438.971 1241.41 426.857C1237.22 419.679 1228.98 414.029 1227.46 406.143C1226.28 400.077 1229.14 393.002 1224.52 388.227C1222.17 385.798 1218.18 384.457 1216.78 381.558C1215.9 379.733 1216.25 377.663 1215.78 375.736C1215.3 373.809 1213.29 371.792 1211.02 372.292C1204.41 373.742 1202.3 390.81 1198.76 394.956C1193.39 401.26 1182.35 397.108 1184.04 389.341Z" fill="#9CB0C9" fill-opacity="0.51"/>
<path d="M1061.91 355.07C1059.65 354.54 1057.19 354.019 1055.02 354.775C1052.86 355.532 1051.6 358.188 1053.33 359.506C1066.92 359.063 1080.58 358.624 1094.05 360.167C1109.57 361.944 1124.93 366.346 1140.52 365.051C1131.61 362.855 1122.56 361.099 1113.41 359.792L1098.15 357.355C1094.06 356.638 1089.92 356.104 1085.76 355.754C1077.06 355.153 1070.47 357.076 1061.91 355.07Z" fill="#9CB0C9" fill-opacity="0.51"/>
<path d="M1075.51 315.509C1074.38 315.431 1072.99 315.363 1072.4 316.174C1071.84 316.948 1072.48 317.972 1072.18 318.84C1071.77 320.027 1069.91 320.33 1068.45 320.169C1066.99 320.007 1065.4 319.62 1064.1 320.211C1063.45 320.586 1062.95 321.13 1062.7 321.761C1062.44 322.392 1062.43 323.075 1062.68 323.709C1063.21 324.967 1064.07 326.11 1065.19 327.057C1067.11 329.079 1069.3 330.912 1071.71 332.523C1076.38 335.404 1082.7 336.793 1085.64 340.976C1086.06 341.787 1086.7 342.505 1087.51 343.071C1088.92 343.818 1090.76 343.25 1092.28 342.669L1097.61 340.633C1098.57 340.344 1099.42 339.857 1100.1 339.217C1101.31 337.836 1100.57 335.872 1099.54 334.385C1098.52 332.897 1097.21 331.357 1097.43 329.652C1097.82 326.611 1102.5 325.447 1104.42 322.845C1106.36 320.223 1105.1 316.843 1105.32 313.765C1105.59 310.166 1108.29 305.485 1103.94 302.796C1100.24 300.51 1096.71 302.622 1094.05 305.145C1088.45 310.466 1085.8 316.228 1075.51 315.509Z" fill="#9CB0C9" fill-opacity="0.51"/>
<path d="M1107.85 261.733C1109.67 264.645 1113.46 266.383 1115.44 269.219C1117.59 272.293 1117.35 276.264 1119.68 279.244C1122.07 282.301 1126.89 283.924 1128.23 287.401C1129.7 291.197 1126.37 295.81 1129.02 299.127C1129.52 299.669 1130.14 300.12 1130.85 300.45C1131.57 300.78 1132.35 300.983 1133.17 301.045C1133.98 301.107 1134.8 301.028 1135.57 300.812C1136.34 300.596 1137.05 300.248 1137.66 299.791C1138.78 298.773 1139.37 297.432 1139.32 296.051C1139.28 294.671 1138.58 293.361 1137.4 292.401C1135.83 291.205 1133.57 290.688 1132.26 289.291C1131.58 288.485 1131.13 287.559 1130.94 286.585C1130.22 283.774 1130.34 280.86 1131.27 278.095C1131.62 277.393 1131.71 276.619 1131.52 275.874C1130.93 274.441 1128.61 274.339 1126.98 273.674C1123.28 272.164 1123.37 267.798 1124.02 264.398C1123.59 266.661 1113.95 262.811 1112.94 261.529C1110.93 258.982 1112.02 254.069 1111.63 251.254C1107.3 252.999 1105.63 258.172 1107.85 261.733Z" fill="#9CB0C9" fill-opacity="0.51"/>
<path d="M1010.7 306.539C1008.92 304.873 1006.24 303.13 1003.86 304.135C1002.04 304.901 1001.53 307.007 1002.25 308.604C1003.12 310.155 1004.46 311.489 1006.13 312.474C1011.1 315.903 1016.46 318.998 1020.8 322.985C1028.56 330.118 1032.67 339.744 1041.12 346.316C1042.81 347.839 1045.06 348.856 1047.51 349.211C1049.97 349.402 1052.74 348.086 1053.02 346.034C1053.25 344.343 1051.84 342.83 1050.46 341.578C1047.18 338.595 1043.59 335.849 1040.5 332.732C1039.07 331.535 1038.17 329.966 1037.95 328.283C1037.93 326.605 1039.76 324.849 1041.71 325.264C1039.34 324.759 1037.59 321.464 1034.12 320.845C1031.22 320.327 1030.52 321.829 1027.06 320.591C1020.48 318.23 1015.31 310.855 1010.7 306.539Z" fill="#9CB0C9" fill-opacity="0.51"/>
<path d="M1165.42 144.32C1163.53 143.85 1161.67 143.296 1159.85 142.658C1154.97 141.431 1148.5 144.436 1149.15 148.669C1149.58 151.481 1152.71 153.378 1154.44 155.817C1157 159.435 1156.32 164.024 1154.97 168.076C1154.64 169.33 1154.01 170.516 1153.12 171.563C1151.88 172.669 1150.39 173.564 1148.74 174.198C1142.14 177.294 1136.32 181.43 1131.6 186.377C1131.09 186.834 1130.73 187.398 1130.56 188.009C1130.33 189.439 1132.05 190.48 1133.02 191.672C1135.18 194.32 1133.62 197.883 1133.83 201.082C1133.8 201.535 1133.9 201.986 1134.14 202.395C1134.37 202.804 1134.73 203.155 1135.17 203.417C1136.47 203.969 1138.01 203.031 1138.72 201.963C1141.06 198.419 1139.3 192.731 1143.68 191.022C1144.51 190.699 1145.52 190.562 1146.07 189.953C1146.95 188.985 1146.11 187.553 1146.55 186.397C1147.22 184.661 1150.06 184.583 1152.24 184.66C1155.99 184.791 1159.74 184.374 1163.33 183.426C1164.73 183.146 1166.01 182.529 1167 181.649C1168.31 180.28 1168.19 178.333 1167.93 176.593C1166.62 167.915 1163.33 159.529 1158.25 151.885C1162.1 152.297 1166.29 152.653 1169.62 150.973C1171.48 150.033 1173.72 147.22 1172.79 145.305C1171.33 142.277 1168.69 144.826 1165.42 144.32Z" fill="#9CB0C9" fill-opacity="0.51"/>
<path d="M671.214 192.042C671.675 194.111 672.128 196.29 671.318 198.282C670.507 200.274 667.956 201.939 665.547 201.329C663.678 200.855 662.598 199.283 661.271 198.085C653.889 191.421 637.234 195.279 632.674 187.036C630.813 183.671 632.078 179.64 630.808 176.088C630.008 174.036 628.414 172.263 626.278 171.05C624.142 169.837 621.585 169.251 619.007 169.385C616.657 169.669 614.369 170.24 612.216 171.08C597.799 175.908 582.662 179.074 567.224 180.49C564.29 180.639 561.387 181.081 558.578 181.805C552.239 183.727 547.908 188.641 544.825 193.655C541.743 198.67 539.467 204.099 535.335 208.554C530.991 213.236 524.905 216.515 519.228 220.061C517.041 221.24 515.22 222.836 513.914 224.718C512.684 226.83 512.753 229.288 512.849 231.637L514.009 260.164C514.158 263.833 514.346 267.634 516.31 270.917C518.762 275.018 523.607 277.703 526.968 281.326C530.398 285.048 532.185 289.647 532.026 294.344C531.955 296.233 531.73 298.467 533.489 299.653C534.559 300.233 535.811 300.534 537.086 300.518L583.236 303.676C591.355 304.232 600.351 305.145 605.651 310.317C608.153 312.757 610.162 316.267 613.994 316.529C615.637 316.642 617.236 316.077 618.88 315.969C623.027 315.694 626.67 318.326 628.97 321.225C632.45 325.643 634.029 330.92 633.449 336.188C633.072 339.495 631.846 342.71 631.582 346.025C630.576 358.637 643.362 369.594 643.61 382.233C643.756 389.667 639.535 396.613 635.42 403.204C642.062 411.616 636.623 422.818 639.267 432.652C641.776 441.983 651.08 449.287 653.398 458.651C654.459 462.938 654.521 468.214 659.042 470.422C661.025 471.231 663.225 471.599 665.428 471.491C678.717 471.623 691.854 469.122 703.766 464.193C709.356 461.874 715.15 458.411 716.126 453.257C716.914 449.1 714.393 444.451 716.958 440.83C719.982 436.563 727.727 436.902 732.176 433.621C739.393 428.298 733.766 418.148 736.69 410.482C739.318 403.591 748.366 399.931 752.851 393.746C754.616 391.086 755.883 388.216 756.607 385.235C758.662 378.11 759.941 370.845 760.428 363.528C760.548 359.082 760.94 354.644 761.603 350.232C766.438 325.111 796.138 308.29 805.781 284.158C806.702 281.854 807.134 278.784 804.682 277.48C803.228 276.9 801.579 276.755 800.013 277.071L778.739 279.314C776.096 279.593 773.295 279.853 770.869 278.935C768.442 278.017 766.703 275.451 767.99 273.501C771.603 268.028 764.171 261.113 760.868 255.504C751.976 240.403 741.386 226.042 729.242 212.617C728.464 211.926 727.977 211.042 727.855 210.099L733.893 210.267C731.855 204.152 728.491 197.46 721.386 195.223C717.382 193.963 712.948 194.399 708.677 194.594C696.441 195.153 683.324 193.608 671.214 192.042Z" fill="#9CB0C9" fill-opacity="0.51"/>
<path d="M708.686 54.2344C711.888 57.0775 715.476 60.0918 720.108 60.5873C728.291 61.4627 734.174 54.3877 737.919 48.2423C738.058 49.8089 738.922 51.2686 740.328 52.3108C741.734 53.3529 743.57 53.8954 745.447 53.8228C747.467 53.5386 749.395 52.9085 751.109 51.9718C767.321 44.5639 785.479 40.6388 803.954 40.5493C803.776 39.3791 804.123 38.1954 804.928 37.2267C805.733 36.2579 806.938 35.5727 808.312 35.3033C812.068 34.6807 815.451 37.3961 817.263 40.2168C819.075 43.0375 820.205 46.307 823.084 48.4184C825.963 50.5297 831.536 50.4378 832.673 47.3803C833.765 44.445 830.108 41.9418 827.07 40.2112C824.031 38.4807 820.829 35.2777 822.875 32.7238C838.397 29.8507 854.016 26.9668 869.899 26.3957C872.603 26.4745 875.298 26.0863 877.815 25.2556C880.237 24.2616 882.162 22.0055 881.511 19.8161C878.045 20.4974 874.415 20.3001 871.083 19.2493C867.752 18.1986 864.87 16.342 862.805 13.9163C884.845 12.3956 908.286 11.0994 927.818 19.7708C930.162 23.978 918.216 27.4785 921.412 31.2732C922.431 32.4835 924.474 32.6254 926.244 32.6529C939.817 32.8636 953.468 33.0702 966.888 31.3568C971.792 30.7306 976.746 29.8467 981.669 30.3544C989.87 31.2002 996.885 35.7756 1004.95 37.2674C1008.24 37.8746 1011.92 37.8951 1014.69 36.2981C1017.46 34.701 1018.65 31.0644 1016.38 28.9883C1023.97 22.7628 1036.58 24.3057 1046.6 27.2862C1056.62 30.2666 1066.12 35.0731 1076.73 35.7375C1084.33 36.2139 1092.04 34.5031 1099.56 35.5905C1104.28 36.2738 1108.68 38.0307 1113.29 39.1101C1122.03 41.1516 1131.26 40.7206 1140.33 40.8189C1163.45 41.0794 1186.33 44.8803 1207.82 52.0332C1210.62 52.7943 1213.18 54.0597 1215.32 55.7399C1217.32 57.5304 1218.34 60.3128 1217 62.4897L1194.79 59.7766C1196.88 63.2206 1202.3 63.8075 1206.69 64.9956C1211.09 66.1838 1215.65 70.2429 1213 73.4119C1208.24 72.1438 1203.93 76.1256 1201.52 79.7892C1199.11 83.4527 1196.18 87.8403 1191.19 88.0635C1186.72 88.2633 1181.32 85.081 1178.4 87.9224C1182.43 92.1681 1185.87 96.7756 1188.68 101.66C1191.56 106.674 1193.61 112.991 1189.72 117.503C1189.1 118.308 1188.18 118.91 1187.09 119.205C1183.91 119.878 1181.85 116.628 1179.57 114.658C1176.7 112.175 1172.36 111.472 1168.47 110.308C1164.58 109.144 1160.48 106.854 1160.18 103.41C1159.99 101.267 1161.34 99.2753 1162.34 97.2949C1164.02 93.9568 1164.75 90.3409 1164.48 86.7277C1164.26 83.8209 1163.29 80.7972 1160.79 78.7663C1158.3 76.7353 1153.98 76.091 1151.3 77.9512C1150.05 78.8191 1149.05 80.2075 1147.43 80.2594C1144.56 80.3512 1142.35 76.1679 1140.05 77.5959C1140.32 79.1174 1139.94 80.6702 1138.98 81.9827C1132.09 86.9927 1121.51 84.8732 1112.63 86.643C1108.4 87.6536 1104.36 89.1302 1100.6 91.0337C1099.2 91.5362 1098 92.3756 1097.16 93.4459C1096.06 95.2473 1097.28 97.5545 1099.23 98.7523C1101.31 99.8151 1103.63 100.48 1106.05 100.698C1116.88 102.413 1127.86 105.067 1136.41 110.883C1144.96 116.698 1150.57 126.311 1147.86 135.244L1126.51 118.183C1127.32 125.347 1127.78 132.53 1127.89 139.733C1128.03 141.139 1127.8 142.553 1127.21 143.877C1125.69 146.689 1121.57 147.635 1117.95 148.255C1116.94 148.415 1115.99 148.751 1115.15 149.241C1114.31 149.731 1113.61 150.363 1113.08 151.098C1112.55 151.832 1112.22 152.651 1112.1 153.501C1111.98 154.351 1112.07 155.212 1112.38 156.029C1113.66 159.53 1116.87 162.259 1119.8 164.979C1122.73 167.699 1125.62 170.79 1126 174.438C1126.39 178.086 1123.09 182.197 1118.73 181.944C1115.41 181.751 1112.96 179.272 1111.54 176.76C1110.13 174.248 1109.29 171.449 1107.17 169.315C1100.74 162.854 1086.31 165.622 1080.56 158.734C1079.09 160.126 1078.07 161.808 1077.6 163.62C1077.13 165.433 1077.22 167.316 1077.87 169.091C1080.54 167.69 1084.21 168.992 1086.22 171.029C1088.23 173.065 1089.18 175.676 1090.76 177.963C1092.89 181.05 1096.29 183.786 1096.58 187.341C1096.5 188.686 1096.53 190.033 1096.66 191.375C1097.19 193.529 1099.37 195.076 1100.88 196.877C1104.39 201.067 1104.22 206.823 1101.96 211.577C1099.69 216.331 1095.62 220.303 1091.59 224.155C1084.56 230.882 1077.37 237.569 1069.03 243.155C1066.65 244.75 1064.11 246.317 1062.62 248.546C1061.14 250.774 1061.07 253.902 1063.34 255.598C1061.71 255.666 1058.79 256.336 1057.16 256.405C1056.59 250.936 1056.46 245.44 1056.79 239.957C1050.35 237.374 1043.42 244.292 1044.26 250.219C1045.09 256.147 1050.21 260.904 1053.86 266.032C1056.53 269.783 1058.52 274.156 1057.63 278.456C1056.73 282.756 1052.14 286.723 1046.94 286.344C1038.67 285.741 1035.21 275.813 1027.02 274.676C1026.3 274.534 1025.54 274.597 1024.87 274.855C1023.65 275.413 1023.44 276.773 1023.37 277.932C1023.04 283.616 1022.75 289.527 1025.4 294.768C1029.28 302.435 1039.31 308.875 1037.21 317.013C1025.88 312.608 1019.98 301.98 1017.31 291.771C1014.63 281.563 1014.19 270.846 1009.39 261.195C1005.75 265.098 998.092 261.871 994.765 257.777C991.61 253.895 989.668 249.404 986.607 245.47C983.547 241.536 978.858 238.013 973.251 237.796C967.372 237.57 962.274 240.943 957.79 244.13C954.103 246.751 950.318 249.475 948.163 253.098C945.027 258.37 945.847 264.585 945.696 270.472C945.532 276.836 943.919 283.551 938.732 288.21C933.545 292.869 923.97 294.492 918.248 290.293C915.261 288.1 913.814 284.825 912.526 281.681C906.316 266.527 901.144 251.088 897.036 235.442C896.074 239.013 892.324 243.616 888.741 241.512C887.937 240.947 887.286 240.245 886.83 239.453C880.147 229.982 867.771 224.301 855.266 220.895C842.762 217.489 829.605 215.9 817.239 212.157C810.31 210.058 803.691 207.301 797.513 203.94C795.938 205.875 795.019 208.13 794.852 210.466C794.685 212.802 795.277 215.133 796.565 217.21C799.308 221.271 805.515 223.621 810.829 222.202C813.574 221.468 815.893 219.874 818.618 219.087C821.342 218.3 824.999 218.686 826.19 220.881C827.331 222.982 825.607 225.523 826.462 227.717C827.764 231.058 833.79 231.315 835.898 234.355C837.465 236.617 836.175 239.621 833.937 241.446C831.698 243.271 828.712 244.273 825.979 245.543C817.113 249.666 810.808 256.703 803.059 262.179C795.31 267.654 784.378 271.651 775.143 268.139C777.345 258.819 764.067 251.977 761.624 242.699C760.82 239.645 761.237 236.401 760.089 233.425C758.428 229.116 753.856 226.154 750.105 222.888C745.556 218.885 742.013 214.16 739.683 208.993C737.353 203.826 736.285 198.321 736.541 192.803C736.743 188.968 737.586 185.071 736.541 181.334C735.496 177.596 731.796 173.979 727.21 174.148C716.736 174.535 703.541 175.187 698.046 167.721C696.085 165.056 695.231 161.154 698.067 159.112C700.067 157.672 703.02 157.808 705.647 158.024L729.246 159.965C734.766 160.419 740.732 160.794 745.469 158.381C750.205 155.968 752.257 149.564 747.872 146.725C744.667 144.651 738.926 144.763 737.994 141.466C737.218 138.719 740.854 135.603 738.89 133.308C737.483 131.662 734.317 132.119 732.399 133.352C730.481 134.586 729.089 136.39 726.943 137.325C723.177 138.963 718.678 137.404 714.626 136.344C710.575 135.284 705.143 135.194 703.178 138.34C700.981 141.859 705.128 146.47 702.946 149.996C700.063 154.658 690.297 152.004 686.247 156.014C681.6 160.615 689.41 167.476 687.843 173.355C685.842 174.183 683.618 174.564 681.389 174.459C679.16 174.354 677.001 173.768 675.124 172.757C673.277 171.707 671.806 170.258 670.866 168.565C669.926 166.871 669.552 164.996 669.785 163.139C670.173 160.495 671.822 157.796 670.717 155.297C669.824 153.276 667.398 152.073 665.143 151.032L642.21 140.435C640.081 143.738 642.772 147.832 646.139 150.313C649.505 152.793 653.722 154.662 655.933 157.926C657.332 160.188 657.646 162.811 656.81 165.26C655.974 167.708 654.052 169.798 651.436 171.101C651.108 171.291 650.735 171.418 650.343 171.476C649.951 171.533 649.548 171.518 649.163 171.433C648.797 171.253 648.478 171.014 648.225 170.729C647.972 170.444 647.789 170.12 647.689 169.775C643.642 161.117 637.567 152.58 627.854 148.057C618.142 143.534 604.186 144.464 597.816 152.083C596.304 153.893 595.288 155.956 593.97 157.869C586.969 168.034 571.959 172.848 557.935 172.534C556.563 172.597 555.198 172.329 554.003 171.761C551.737 170.452 551.839 167.675 552.186 165.39L553.658 155.694C553.954 153.746 554.382 151.594 556.225 150.379C558.823 148.665 562.571 149.747 565.879 149.707C568.386 149.609 570.796 148.868 572.783 147.587C574.769 146.305 576.236 144.543 576.985 142.54C577.653 140.518 577.649 138.381 576.973 136.361C576.296 134.34 574.973 132.513 573.146 131.074C571.63 129.883 569.594 128.387 570.395 126.782C570.715 126.338 571.147 125.958 571.661 125.668C572.175 125.379 572.759 125.187 573.371 125.106C579.314 123.663 585.594 123.285 591.438 121.582C597.282 119.88 602.949 116.396 604.333 111.352C604.757 109.807 604.95 107.934 606.611 107.168C607.444 106.874 608.338 106.721 609.243 106.718C612.411 106.341 615.296 104.986 617.329 102.92C619.363 100.854 620.397 98.2259 620.229 95.5537C623.03 93.9174 626.954 95.1211 629.663 96.8615C632.373 98.602 634.765 100.901 638.062 101.652C644.205 103.05 650.143 98.5013 656.51 98.4803C659.188 98.4714 661.96 99.263 664.479 98.504C667.033 97.7344 668.558 95.6088 670.518 94.0384C672.478 92.4681 675.917 91.5102 677.726 93.2019L676.185 83.6567C679.289 84.3123 682.525 84.4051 685.675 83.9289C688.825 83.4526 691.817 82.4184 694.449 80.8956L674.531 75.2682C673.838 75.1234 673.198 74.8374 672.669 74.4355C671.221 73.1317 672.659 71.0998 673.836 69.6177C676.653 66.0721 677.126 60.2315 672.494 58.4663C669.332 57.2614 665.702 58.7077 662.668 60.1227L648.13 66.9006C647.668 69.2112 651.047 70.5207 653.141 72.0771C654.408 73.0188 655.305 74.2589 655.713 75.6345C656.122 77.01 656.024 78.4568 655.431 79.7847C654.838 81.1127 653.779 82.2596 652.392 83.075C651.006 83.8903 649.357 84.336 647.662 84.3533C648.619 85.394 649.284 86.6014 649.608 87.8862C649.932 89.171 649.906 90.5001 649.532 91.7753L639.75 92.3636C638.652 92.5482 637.512 92.3621 636.578 91.8458C635.532 91.0689 635.673 89.7075 635.431 88.5553C634.846 85.7742 631.589 83.8251 628.265 83.3253C624.942 82.8255 621.541 83.4661 618.25 84.0987C616.853 84.5192 615.318 84.4895 613.945 84.0156C613.158 83.588 612.56 82.9567 612.242 82.2181C610.799 79.2927 612.148 75.8542 614.465 73.3524C616.783 70.8507 619.955 69.0219 622.804 66.9392C629.618 61.9404 634.624 55.448 637.257 48.1955C642.641 46.309 648.216 43.7459 653.601 41.8594C661.902 38.3449 671.212 36.8367 680.483 37.5043L698.718 37.7956C704.117 37.8818 709.662 37.9923 714.654 39.7133C719.647 41.4344 724.033 45.1568 724.378 49.6628C724.482 50.1729 724.429 50.6968 724.225 51.1852C724.02 51.6736 723.671 52.1106 723.209 52.455C722.504 52.7768 721.705 52.9273 720.903 52.8895C715.868 53.0375 713.721 54.0865 708.686 54.2344Z" fill="#9CB0C9" fill-opacity="0.51"/>
<path d="M563.337 102.022C564.049 101.458 564.562 100.741 564.818 99.949C565.075 99.1573 565.066 98.3218 564.792 97.5342C563.058 96.9749 561.172 96.8312 559.346 97.1195C557.52 97.4078 555.827 98.1166 554.456 99.1661C553.376 100.08 552.445 101.109 551.688 102.227C549.291 105.496 547.172 109.4 548.561 113.054C548.674 113.453 548.881 113.828 549.17 114.159C549.459 114.49 549.824 114.769 550.244 114.98C550.867 115.189 551.538 115.277 552.207 115.237C554.846 115.234 557.483 115.098 560.104 114.83C561.713 114.666 563.582 114.286 564.204 113.034C565.021 111.389 563.043 109.526 563.619 107.811C563.999 107.044 564.574 106.355 565.304 105.793C565.667 105.51 565.945 105.161 566.118 104.772C566.29 104.383 566.352 103.966 566.298 103.554C566.065 102.749 564.592 102.292 564.061 102.992" fill="#9CB0C9" fill-opacity="0.51"/>
<path d="M577.025 87.1824C574.68 86.7322 572.263 86.6053 569.869 86.8067C569.34 86.7935 568.815 86.8932 568.344 87.0964C567.888 87.3776 567.558 87.778 567.405 88.2342C566.899 89.5912 567.023 91.0576 567.753 92.3414C568.482 93.6252 569.763 94.6322 571.341 95.1617C572.2 95.327 573.024 95.6037 573.781 95.9818C575.805 97.2949 574.515 99.9788 574.898 102.097C575.329 104.475 578.082 106.471 577.577 108.839C577.179 110.705 574.796 112.182 575.18 114.05C575.582 116.006 578.55 116.594 580.917 116.75C582.288 116.951 583.699 116.816 584.981 116.361C586.265 115.626 587.179 114.52 587.545 113.256C588.514 110.845 588.921 108.301 588.744 105.761C588.734 104.607 588.387 103.471 587.734 102.454C587.021 101.648 586.231 100.891 585.372 100.192C580.838 95.783 585.612 89.2058 577.025 87.1824Z" fill="#9CB0C9" fill-opacity="0.51"/>
<path opacity="0.8" d="M1173.17 432.602C1173.17 432.602 825.952 265.945 676.468 297.522C676.468 297.522 359.666 326.029 322.951 388.745C322.951 388.745 222.246 125.602 185.53 116.83" stroke="#6C63FF" stroke-width="2" stroke-miterlimit="10"/>
<path opacity="0.8" d="M322.951 388.745C381.171 258.928 905.677 115.076 905.677 115.076C831.197 130.865 676.468 297.522 676.468 297.522C676.468 297.522 349.176 98.4104 185.53 116.83C185.53 116.83 906.201 136.566 1173.17 432.602" stroke="#6C63FF" stroke-width="2" stroke-miterlimit="10"/>
<path d="M185.531 129.549C193.931 129.549 200.741 123.855 200.741 116.83C200.741 109.806 193.931 104.112 185.531 104.112C177.13 104.112 170.32 109.806 170.32 116.83C170.32 123.855 177.13 129.549 185.531 129.549Z" fill="#6C63FF"/>
<path d="M322.951 401.463C331.352 401.463 338.162 395.769 338.162 388.745C338.162 381.72 331.352 376.026 322.951 376.026C314.55 376.026 307.74 381.72 307.74 388.745C307.74 395.769 314.55 401.463 322.951 401.463Z" fill="#6C63FF"/>
<path d="M905.677 127.795C914.078 127.795 920.888 122.1 920.888 115.076C920.888 108.052 914.078 102.357 905.677 102.357C897.277 102.357 890.467 108.052 890.467 115.076C890.467 122.1 897.277 127.795 905.677 127.795Z" fill="#6C63FF"/>
<path d="M1173.18 445.321C1181.58 445.321 1188.39 439.627 1188.39 432.602C1188.39 425.578 1181.58 419.884 1173.18 419.884C1164.77 419.884 1157.96 425.578 1157.96 432.602C1157.96 439.627 1164.77 445.321 1173.18 445.321Z" fill="#6C63FF"/>
<path d="M676.468 310.24C684.869 310.24 691.679 304.546 691.679 297.521C691.679 290.497 684.869 284.803 676.468 284.803C668.068 284.803 661.258 290.497 661.258 297.521C661.258 304.546 668.068 310.24 676.468 310.24Z" fill="#6C63FF"/>
</svg>
