<svg width="716" height="556" viewBox="0 0 716 556" fill="none" xmlns="http://www.w3.org/2000/svg">
<path d="M481.788 455.124H229.728C224.532 455.124 220.33 450.922 220.33 445.726V416.537C220.33 411.341 224.532 407.139 229.728 407.139H481.788C486.984 407.139 491.186 411.341 491.186 416.537V445.726C491.186 450.905 486.984 455.124 481.788 455.124Z" fill="url(#paint0_linear_222_10317)"/>
<path d="M612.452 136.348C595.577 139.622 589.208 172.41 588.036 179.414C587.889 180.245 587.824 180.717 587.824 180.717C586.651 179.626 585.495 178.47 584.387 177.215C565.835 156.432 557.007 114.213 580.185 103.511C604.747 92.1749 594.469 68.4594 598.411 47.9525C602.353 27.4457 635.858 17.2656 635.858 17.2656C635.858 17.2656 623.935 41.0464 633.219 72.4988C642.503 103.935 631.346 132.667 612.452 136.348Z" fill="#609A3E"/>
<path d="M587.824 180.717C586.651 179.626 585.495 178.47 584.387 177.216C578.686 164.902 573.914 146.219 586.212 130.501C590.609 124.882 594.567 120.256 598.069 116.184C610.497 101.638 616.752 94.3576 615.921 74.0137L618.381 74.1603C619.244 95.2372 612.436 103.186 600.089 117.633C596.62 121.705 592.678 126.299 588.297 131.886C575.608 148.109 582.058 167.752 588.069 179.414C587.889 180.245 587.824 180.717 587.824 180.717Z" fill="url(#paint1_linear_222_10317)"/>
<path d="M592.336 184.545C574.419 204.97 565.493 214.531 554.743 203.667C554.303 203.227 553.847 202.706 553.391 202.136C552.528 201.077 551.664 199.807 550.768 198.308C538.064 176.987 554.319 120.223 593.769 110.678C633.236 101.133 612.484 72.2216 634.881 52.4803C658.792 31.4034 685.863 58.6373 685.863 58.6373C667.131 52.6595 651.446 110.531 638.806 138.954C623.528 173.355 612.419 161.676 592.336 184.545Z" fill="#609A3E"/>
<path d="M554.743 203.667C554.303 203.228 553.847 202.706 553.391 202.136C557.365 182.981 570.819 151.904 587.368 144.248C612.745 132.504 626.101 117.079 630.678 94.2108C636.053 67.2865 653.758 65.3156 653.937 65.2993L654.084 66.8956C653.921 66.9118 637.372 68.8339 632.242 94.5366C627.567 117.943 613.934 133.71 588.036 145.698C579.028 149.868 569.646 162.23 562.284 179.61C558.538 188.519 556.013 197.054 554.743 203.667Z" fill="url(#paint2_linear_222_10317)"/>
<path d="M582.172 431.132H142.456C131.836 431.132 123.22 422.515 123.22 411.895V19.2363C123.22 8.61644 131.836 0 142.456 0H582.172C592.791 0 601.408 8.61644 601.408 19.2363V411.895C601.408 422.515 592.791 431.132 582.172 431.132Z" fill="url(#paint3_linear_222_10317)"/>
<path d="M152.425 214.368H151.366V325.339H152.425V214.368Z" fill="#E0E0E0"/>
<path d="M227.627 214.368H226.568V325.339H227.627V214.368Z" fill="#E0E0E0"/>
<path d="M302.83 214.368H301.771V325.339H302.83V214.368Z" fill="#E0E0E0"/>
<path d="M378.032 214.368H376.974V325.339H378.032V214.368Z" fill="#E0E0E0"/>
<path d="M453.235 214.368H452.176V325.339H453.235V214.368Z" fill="#E0E0E0"/>
<path d="M163.843 331.92H151.888V335.78H163.843V331.92Z" fill="#B8B8B8"/>
<path d="M169.902 200.703H151.888V203.602H169.902V200.703Z" fill="#D9D9D9"/>
<path d="M177.444 206.045H151.888V208.944H177.444V206.045Z" fill="#D9D9D9"/>
<path d="M247.434 200.703H226.292V203.602H247.434V200.703Z" fill="#D9D9D9"/>
<path d="M239.811 206.045H226.292V208.944H239.811V206.045Z" fill="#D9D9D9"/>
<path d="M315.942 200.703H302.83V203.602H315.942V200.703Z" fill="#D9D9D9"/>
<path d="M318.108 206.045H302.83V208.944H318.108V206.045Z" fill="#D9D9D9"/>
<path d="M397.122 200.703H378.032V203.602H397.122V200.703Z" fill="#D9D9D9"/>
<path d="M393.311 206.045H378.032V208.944H393.311V206.045Z" fill="#D9D9D9"/>
<path d="M464.099 200.703H452.697V203.602H464.099V200.703Z" fill="#D9D9D9"/>
<path d="M461.819 206.045H452.697V208.944H461.819V206.045Z" fill="#D9D9D9"/>
<path d="M239.045 331.92H227.09V335.78H239.045V331.92Z" fill="#B8B8B8"/>
<path d="M314.802 331.92H302.83V335.78H314.802V331.92Z" fill="#B8B8B8"/>
<path d="M390.004 331.92H378.032V335.78H390.004V331.92Z" fill="#B8B8B8"/>
<path d="M465.207 331.92H453.235V335.78H465.207V331.92Z" fill="#B8B8B8"/>
<path d="M426.637 292.373C403.182 292.373 382.789 282.225 361.533 271.67C335.292 258.623 308.156 245.121 271.997 248.818C248.916 251.18 234.42 260.578 221.634 268.869C210.053 276.378 199.107 282.991 184.285 283.544C160.325 284.457 152.018 274.244 151.888 273.609V267.044C151.92 267.158 157.149 278.625 184.269 278.495C197.625 278.43 207.479 272.029 218.897 264.634C232.156 256.034 247.19 246.277 271.492 243.785C309.101 239.941 336.905 253.77 363.781 267.126C391.91 281.117 418.753 294.229 452.698 282.86V288.252C443.022 291.509 435.286 292.373 426.637 292.373Z" fill="url(#paint4_linear_222_10317)"/>
<path d="M285.842 291.118C268.527 291.118 254.796 279.472 241.359 268.071C231.162 259.422 220.591 250.593 208.375 246.228C171.124 232.921 152.051 257.223 151.888 257.434V250.04C152.083 249.779 155.487 245.365 165.325 241.163C174.284 237.319 189.302 234.256 210.036 241.472C223.165 246.033 234.078 255.284 244.616 264.227C266.003 282.355 284.49 298.025 316.561 273.495C340.863 254.91 363.764 237.205 386.307 230.738C408.345 224.418 431.328 229.044 452.844 250.561L452.681 257.272C406.977 211.371 368.064 240.446 319.607 277.501C306.805 287.307 295.745 291.118 285.842 291.118Z" fill="url(#paint5_linear_222_10317)"/>
<path d="M196.37 47.187C178.86 43.6525 161.725 52.0898 153.418 66.8632C151.415 70.4466 149.916 74.3883 149.053 78.6232C146.463 91.4746 150.323 104.114 158.386 113.219C163.973 119.523 171.596 124.132 180.505 125.924C181.385 126.103 182.281 126.25 183.16 126.364C187.167 126.901 191.125 126.82 194.937 126.185C210.948 123.562 224.418 111.314 227.823 94.4716C232.204 72.7595 218.115 51.5686 196.37 47.187ZM217.968 92.517C215.427 105.14 205.329 114.327 193.324 116.298C190.458 116.77 187.493 116.835 184.496 116.428C183.828 116.347 183.16 116.233 182.509 116.102C175.831 114.75 170.13 111.297 165.928 106.574C159.868 99.749 156.985 90.2693 158.924 80.6267C159.559 77.4505 160.683 74.486 162.198 71.7985C168.42 60.7225 181.271 54.4027 194.399 57.0414C210.687 60.3316 221.242 76.2126 217.968 92.517Z" fill="white"/>
<path d="M165.911 106.557L158.386 113.236C150.307 104.13 146.463 91.4745 149.053 78.6395C149.916 74.4045 151.398 70.4465 153.418 66.8794L162.181 71.8147C160.682 74.5023 159.559 77.4504 158.907 80.6429C156.969 90.2529 159.868 99.7326 165.911 106.557Z" fill="#1A598C"/>
<path d="M184.479 116.428L183.16 126.396C182.281 126.282 181.385 126.136 180.505 125.957C171.595 124.165 163.989 119.555 158.386 113.252L165.911 106.574C170.097 111.297 175.814 114.767 182.492 116.102C183.16 116.233 183.828 116.33 184.479 116.428Z" fill="#2273B5"/>
<path d="M194.936 126.217C191.125 126.836 187.167 126.918 183.16 126.397L184.479 116.428C187.477 116.835 190.457 116.77 193.308 116.298L194.936 126.217Z" fill="#3D96E0"/>
<path d="M336.383 102.306C343.387 85.8712 338.582 67.3842 325.796 56.2593C322.701 53.5718 319.134 51.3077 315.16 49.6138C303.106 44.483 289.929 45.6883 279.391 51.7475C272.078 55.9499 266.018 62.4814 262.467 70.8373C262.109 71.668 261.783 72.4986 261.49 73.3456C260.155 77.1571 259.438 81.0499 259.275 84.9102C258.607 101.117 267.875 116.802 283.691 123.529C304.1 132.227 327.702 122.715 336.383 102.306ZM287.633 114.278C275.775 109.228 268.836 97.4847 269.325 85.3174C269.439 82.4181 269.993 79.5026 270.986 76.6358C271.214 76.0006 271.442 75.3817 271.719 74.7464C274.39 68.4755 278.919 63.589 284.408 60.4454C292.324 55.901 302.194 54.9889 311.234 58.8329C314.215 60.1034 316.886 61.7973 319.215 63.8171C328.809 72.1566 332.393 86.0178 327.148 98.348C320.616 113.675 302.927 120.793 287.633 114.278Z" fill="white"/>
<path d="M284.407 60.4617L279.391 51.7475C289.945 45.6883 303.106 44.483 315.159 49.6138C319.134 51.3077 322.701 53.5718 325.796 56.2593L319.199 63.8496C316.87 61.8299 314.198 60.1359 311.218 58.8654C302.178 55.0052 292.307 55.9173 284.407 60.4617Z" fill="#4B59C7"/>
<path d="M270.986 76.6522L261.49 73.3457C261.783 72.4987 262.109 71.668 262.468 70.8373C266.018 62.4815 272.078 55.9499 279.391 51.7476L284.408 60.4617C278.919 63.6053 274.39 68.5081 271.719 74.7627C271.442 75.398 271.198 76.0169 270.986 76.6522Z" fill="#6F5BE0"/>
<path d="M259.275 84.9103C259.438 81.05 260.155 77.1571 261.491 73.3457L270.987 76.6522C269.993 79.5026 269.439 82.4345 269.325 85.3338L259.275 84.9103Z" fill="#B487FE"/>
<path d="M434.405 54.3534C420.088 43.6847 400.982 43.9942 387.153 53.7996C383.814 56.1777 380.768 59.1096 378.195 62.579C370.377 73.0848 368.455 86.1805 371.859 97.8592C374.221 105.954 379.14 113.382 386.42 118.806C387.137 119.343 387.886 119.864 388.636 120.337C392.024 122.536 395.64 124.148 399.37 125.207C414.974 129.67 432.386 124.36 442.647 110.564C455.873 92.761 452.192 67.5957 434.405 54.3534ZM434.568 104.554C426.88 114.88 413.817 118.871 402.122 115.532C399.337 114.734 396.617 113.512 394.076 111.867C393.522 111.509 392.968 111.118 392.414 110.711C386.958 106.638 383.261 101.084 381.501 95.0087C378.944 86.2457 380.378 76.4402 386.258 68.5567C388.196 65.9506 390.476 63.7517 392.985 61.9763C403.344 54.6141 417.661 54.386 428.411 62.3835C441.735 72.3519 444.504 91.2136 434.568 104.554Z" fill="white"/>
<path d="M381.501 95.0249L371.859 97.8427C368.455 86.1641 370.377 73.0847 378.195 62.5625C380.785 59.0931 383.814 56.1613 387.153 53.7832L392.968 61.9924C390.46 63.7679 388.18 65.9668 386.241 68.5729C380.378 76.4563 378.944 86.2618 381.501 95.0249Z" fill="#1A598C"/>
<path d="M394.076 111.867L388.62 120.32C387.87 119.832 387.137 119.327 386.404 118.789C379.124 113.365 374.205 105.938 371.843 97.8427L381.485 95.0249C383.261 101.084 386.942 106.655 392.398 110.727C392.969 111.134 393.522 111.509 394.076 111.867Z" fill="#2273B5"/>
<path d="M399.353 125.191C395.639 124.132 392.023 122.503 388.619 120.321L394.076 111.867C396.617 113.512 399.32 114.718 402.122 115.532L399.353 125.191Z" fill="#3788CC"/>
<path d="M228.621 145.844H148.255V152.034H228.621V145.844Z" fill="#C4C4C4"/>
<path d="M208.391 159.005H148.255V165.194H208.391V159.005Z" fill="#C4C4C4"/>
<path d="M303.562 145.844H259.242V152.034H303.562V145.844Z" fill="#C4C4C4"/>
<path d="M325.014 159.005H259.242V165.194H325.014V159.005Z" fill="#C4C4C4"/>
<path d="M426.766 145.844H377.511V152.034H426.766V145.844Z" fill="#C4C4C4"/>
<path d="M434.552 159.005H377.511V165.194H434.552V159.005Z" fill="#C4C4C4"/>
<path d="M560.623 65.4297H502.181V71.2934H560.623V65.4297Z" fill="#B8D6FF"/>
<path d="M569.353 83.5747H502.181V89.4385H569.353V83.5747Z" fill="#B8D6FF"/>
<path d="M536.842 101.638H502.083V107.502H536.842V101.638Z" fill="#B8D6FF"/>
<path d="M555.622 119.686H502.083V125.549H555.622V119.686Z" fill="#B8D6FF"/>
<path d="M403.979 371.566H148.255V377.56H403.979V371.566Z" fill="white"/>
<path d="M424.567 385.557H148.255V391.551H424.567V385.557Z" fill="white"/>
<path d="M327.539 399.549H148.255V405.543H327.539V399.549Z" fill="white"/>
<path d="M281.411 371.566H148.255V377.56H281.411V371.566Z" fill="url(#paint6_linear_222_10317)"/>
<path d="M292.128 385.557H148.255V391.551H292.128V385.557Z" fill="url(#paint7_linear_222_10317)"/>
<path d="M241.602 399.549H148.255V405.543H241.602V399.549Z" fill="url(#paint8_linear_222_10317)"/>
<path opacity="0.73" d="M654.964 462.584H491.789C480.843 462.584 471.982 453.707 471.982 442.777V190.49C471.982 179.544 480.859 170.684 491.789 170.684H654.964C665.909 170.684 674.77 179.561 674.77 190.49V442.761C674.77 453.707 665.909 462.584 654.964 462.584Z" fill="#ADD4EA"/>
<path d="M496.024 316.642H495.226V419.176H496.024V316.642Z" fill="#42CDE8"/>
<path d="M534.904 316.642H534.105V419.176H534.904V316.642Z" fill="#42CDE8"/>
<path d="M573.767 316.642H572.969V419.176H573.767V316.642Z" fill="#42CDE8"/>
<path d="M612.647 316.642H611.849V419.176H612.647V316.642Z" fill="#42CDE8"/>
<path d="M651.511 316.642H650.713V419.176H651.511V316.642Z" fill="#42CDE8"/>
<path d="M495.633 377.593C495.633 377.593 510.048 386.323 525.342 370.523C540.653 354.724 557.153 342.247 572.774 355.555C588.378 368.862 597.988 372.185 613.592 357.216C629.196 342.247 628.007 323.956 651.12 323.956V419.16H495.633V377.593Z" fill="url(#paint9_linear_222_10317)"/>
<path d="M511.041 308.091H495.633V311.821H511.041V308.091Z" fill="#7BD6E8"/>
<path d="M544.172 308.091H534.513V311.821H544.172V308.091Z" fill="#7BD6E8"/>
<path d="M585.283 308.091H573.376V311.821H585.283V308.091Z" fill="#7BD6E8"/>
<path d="M630.581 308.091H612.24V311.821H630.581V308.091Z" fill="#7BD6E8"/>
<path d="M657.52 308.091H651.119V311.821H657.52V308.091Z" fill="#7BD6E8"/>
<path d="M644.311 240.674H592.336V247.254H644.311V240.674Z" fill="white"/>
<path d="M640.044 268.233H592.336V274.814H640.044V268.233Z" fill="white"/>
<path d="M633.61 254.454H592.336V261.034H633.61V254.454Z" fill="white"/>
<path d="M545.735 231.292C545.735 236.309 541.663 240.381 536.646 240.381C531.63 240.381 527.558 236.309 527.558 231.292C527.558 226.275 531.63 222.203 536.646 222.203C541.679 222.203 545.735 226.275 545.735 231.292Z" fill="url(#paint10_linear_222_10317)"/>
<path d="M553.049 260.92V278.202C548.032 280.482 542.445 281.753 536.582 281.753C530.702 281.753 525.131 280.482 520.114 278.202V260.92C520.114 251.831 527.493 244.453 536.582 244.453C545.67 244.453 553.049 251.831 553.049 260.92Z" fill="url(#paint11_linear_222_10317)"/>
<path d="M536.581 282.844C530.669 282.844 524.984 281.623 519.658 279.196C505.064 272.566 495.633 257.923 495.633 241.896C495.633 219.32 514.006 200.947 536.581 200.947C559.157 200.947 577.53 219.32 577.53 241.896C577.53 257.923 568.099 272.55 553.505 279.196C548.178 281.606 542.478 282.844 536.581 282.844ZM536.581 203.114C515.195 203.114 497.799 220.509 497.799 241.896C497.799 257.076 506.725 270.938 520.554 277.225C525.587 279.521 530.994 280.678 536.581 280.678C542.168 280.678 547.559 279.521 552.609 277.225C566.437 270.938 575.363 257.076 575.363 241.896C575.347 220.509 557.951 203.114 536.581 203.114Z" fill="url(#paint12_linear_222_10317)"/>
<path d="M70.7228 339.641C70.7228 339.641 81.9454 314.215 68.9311 316.316C68.9311 316.316 64.5008 319.981 59.9564 327.441C56.5033 333.093 49.3528 348.062 49.6134 353.128C49.874 358.193 53.4737 361.956 57.3665 370.084C57.3665 370.084 65.4455 385.166 65.7875 386.991L74.3225 382.56C74.3225 382.56 67.0906 368.129 61.9761 355.457L70.7228 339.641Z" fill="#6F5BE0"/>
<path d="M4.96789 415.886L176.922 386.6L171.954 357.362L0 386.648L4.96789 415.886Z" fill="url(#paint13_linear_222_10317)"/>
<path d="M176.34 383.068L185.524 381.504L181.747 359.314L172.563 360.877L176.34 383.068Z" fill="#2D3038"/>
<path d="M135.681 555.036H137.798C137.798 555.036 137.098 547.038 139.052 546.957C141.007 546.875 145.877 553.472 148.776 554.482C151.676 555.508 166.579 556.355 166.644 553.619C166.726 550.882 160.927 549.775 159.119 548.993C157.311 548.211 148.532 539.66 146.968 538.65C145.405 537.624 142.717 530.538 142.717 530.538L134.394 530.164C134.394 530.164 133.921 536.793 133.416 540.295C133.221 541.598 133.091 542.771 133.074 543.585C133.009 546.582 135.681 555.036 135.681 555.036Z" fill="#EEA886"/>
<path d="M82.109 553.456H83.8682V546.012C85.3341 546.142 90.2857 550.817 91.8005 552.169C93.3316 553.521 95.4328 553.456 101.867 553.863C108.3 554.27 108.919 550.41 107.893 549.107C106.867 547.787 103.577 547.217 101.867 546.403C100.156 545.588 93.3805 537.949 91.5888 536.141C89.7808 534.333 88.6895 529.17 88.6895 529.17L81.1643 529.821C81.1643 529.821 81.2132 534.545 80.3499 538.519C80.3499 538.519 80.3499 538.536 80.3499 538.552C80.2848 538.894 80.2033 539.22 80.1056 539.546C78.998 543.683 82.109 553.456 82.109 553.456Z" fill="#EEA886"/>
<path d="M109.945 384.726C109.945 384.726 112.796 391.453 113.04 393.147C113.284 394.841 119.946 410.95 121.868 421.798C123.025 428.297 126.201 448.625 126.462 451.215C126.901 455.645 128.986 465.402 129.312 469.93C129.491 472.455 141.935 511.237 144.949 531.499C144.949 531.499 137.798 532.558 132.407 531.141C132.407 531.141 121.477 510.211 115.418 480.533C111.77 462.649 108.528 453.12 105.71 445.758C102.876 438.396 86.8487 417.547 85.171 415.202C83.4933 412.856 73.02 399.907 82.9395 385.883C92.8753 371.843 109.945 384.726 109.945 384.726Z" fill="#E4E8EB"/>
<path d="M74.0952 444.309C75.0074 450.352 74.0464 458.284 72.1569 480.355C70.2512 502.441 75.4797 529.17 75.4797 529.17C82.0276 531.418 89.5853 529.17 89.5853 529.17C89.4061 527.623 89.5853 475.354 89.5853 470.696C89.5853 466.037 90.9209 460.76 91.263 455.401C91.491 451.753 93.2013 445.042 95.107 438.185C95.6771 436.132 96.2634 434.064 96.8498 432.06C97.1756 430.936 97.485 429.845 97.7945 428.77C100.482 419.453 104.098 383.489 104.098 383.489C104.098 383.489 84.0799 367.364 74.3396 382.544C64.5992 397.725 69.5997 408.768 69.9418 410.658C70.2512 412.58 73.1994 438.282 74.0952 444.309Z" fill="#E4E8EB"/>
<path d="M82.4023 411.879C82.5652 412.221 92.5336 434.357 95.0908 438.201C95.6609 436.148 96.2473 434.08 96.8337 432.076C96.8337 432.076 82.7281 412.368 82.4023 411.879Z" fill="#BDC0C2"/>
<path d="M82.109 553.456H83.8682V546.012C85.3341 546.142 90.2857 550.817 91.8005 552.169C93.3316 553.521 95.4328 553.456 101.867 553.863C108.3 554.27 108.919 550.41 107.893 549.107C106.867 547.788 103.577 547.217 101.867 546.403C94.9767 546.778 86.572 537.086 82.5325 537.103C80.3825 537.119 80.4151 538.308 80.3499 538.52C80.3499 538.52 80.3499 538.536 80.3499 538.552C80.2848 538.894 80.2033 539.22 80.1056 539.546C78.998 543.683 82.109 553.456 82.109 553.456Z" fill="#C6C9CC"/>
<path d="M135.681 555.036H137.798C137.798 555.036 137.098 547.038 139.052 546.957C141.007 546.875 145.877 553.472 148.776 554.482C151.676 555.508 166.579 556.355 166.644 553.618C166.726 550.882 160.927 549.774 159.119 548.993C152.979 548.976 142.978 542.217 139.883 540.849C136.788 539.48 133.433 540.295 133.433 540.295C133.237 541.598 133.107 542.771 133.091 543.585C133.009 546.582 135.681 555.036 135.681 555.036Z" fill="#C6C9CC"/>
<path d="M92.2721 300.305C92.2721 300.305 89.0796 308.759 91.5554 315.29C91.5554 315.29 79.8442 314.525 79.4044 313.156C78.9646 311.788 79.8768 299.132 78.2642 295.386C76.6517 291.64 92.2721 300.305 92.2721 300.305Z" fill="#EEA886"/>
<path d="M93.3965 312.423C93.3965 312.423 100.319 314.883 103.446 315.567C106.574 316.251 113.121 319.346 112.584 331.024C112.046 342.687 110.092 352.818 109.392 357.835C108.675 362.851 109.131 375.605 110.271 381.811C110.271 381.811 93.6734 385.997 74.1602 381.811C74.1602 381.811 77.6133 371.24 77.5318 368.503C77.4504 365.767 65.9998 343.257 65.4623 339.69C64.9248 336.139 62.6282 320.453 67.8567 316.984C73.0852 313.515 77.3527 313.971 79.5679 312.423C81.7993 310.876 90.1552 311.316 93.3965 312.423Z" fill="#6F5BE0"/>
<path d="M66.684 400.135C95.0254 407.661 117.585 400.168 117.585 400.168C115.532 395.933 114.017 391.714 112.926 387.642C112.144 384.759 111.591 381.942 111.183 379.238C108.87 363.797 111.884 351.971 111.884 351.971C108.61 325.047 67.8568 317.001 64.5991 325.536C61.3415 334.071 70.919 370.752 71.4076 373.911C71.8962 377.023 66.684 400.135 66.684 400.135Z" fill="#6F5BE0"/>
<path d="M82.0601 266.393C86.7674 264.781 99.5047 263.054 102.762 282.6C106.02 302.13 98.9183 302.472 91.6212 301.918C84.3241 301.364 72.9061 288.171 72.0428 284.164C71.1633 280.157 68.6223 271.003 82.0601 266.393Z" fill="#EEA886"/>
<path d="M100.124 273.886C100.124 273.886 96.2309 282.209 91.1327 285.108C91.1327 285.108 87.9402 293.953 81.0177 297.52C81.0177 297.52 62.661 285.352 73.3134 270.905C83.9822 256.457 98.9347 267.957 100.124 273.886Z" fill="#0F324F"/>
<path d="M91.5885 282.225C91.1813 281.215 88.4286 279.554 87.1907 282.339C85.9528 285.124 90.3832 290.043 91.6048 289.766C92.8264 289.522 93.1685 286.085 91.5885 282.225Z" fill="#EEA886"/>
<path d="M73.9487 273.137C73.5415 272.518 61.3905 266.882 58.8659 278.642C56.3412 290.402 68.655 304.084 70.8214 309.964C72.9877 315.844 69.8441 329.624 69.8441 329.624C69.8441 329.624 77.2552 322.62 79.503 315.29C81.9462 307.228 82.7769 286.916 73.9487 273.137Z" fill="#0F324F"/>
<path d="M73.3291 272.745C73.3291 272.745 77.0428 275.694 77.5314 280.336C77.5314 280.336 78.2318 276.72 76.7333 274.505C75.2348 272.273 73.3291 272.745 73.3291 272.745Z" fill="#E54242"/>
<path d="M112.925 387.626C112.144 384.743 111.59 381.925 111.183 379.221C111.183 379.221 109.31 375.247 108.691 373.341C108.055 371.436 103.364 348.095 103.364 348.095C103.364 348.095 98.3964 370.035 112.925 387.626Z" fill="#1D3B54"/>
<path d="M133.808 388.978C133.808 388.978 137.456 392.61 138.645 392.969C139.834 393.327 142.115 391.324 150.503 390.705C151.236 390.656 152.539 391.307 152.23 392.285C151.92 393.262 148.272 395.9 146.708 396.308C145.144 396.715 137.766 399.647 134.166 398.197C130.566 396.764 128.123 392.187 128.123 392.187L133.808 388.978Z" fill="#EEA886"/>
<path d="M105.401 316.202C105.401 316.202 115.109 320.046 115.679 333.549C116.249 347.036 116.787 354.088 117.308 356.173C117.829 358.258 118.839 366.63 121.282 371.663C123.66 376.55 139.215 392.007 139.215 392.007L131.69 399.093C131.69 399.093 110.011 377.332 108.691 373.357C107.372 369.383 101.948 341.693 101.525 337.018C101.166 333.256 96.1984 316.479 105.401 316.202Z" fill="#6F5BE0"/>
<path opacity="0.1" d="M286.964 440.269C338.357 440.269 380.019 398.607 380.019 347.215C380.019 295.822 338.357 254.161 286.964 254.161C235.572 254.161 193.91 295.822 193.91 347.215C193.91 398.607 235.572 440.269 286.964 440.269Z" fill="#B8B8B8"/>
<path opacity="0.3" d="M226.259 279.733C226.259 279.733 344.153 265.122 367.64 389.531C374.4 376.827 378.227 362.314 378.227 346.922C378.227 296.754 337.556 256.083 287.388 256.083C263.852 256.083 242.4 265.041 226.259 279.733Z" fill="#869AC2"/>
<path d="M286.965 239.29C227.351 239.29 179.04 287.617 179.04 347.215C179.04 406.83 227.367 455.14 286.965 455.14C346.564 455.14 394.891 406.813 394.891 347.215C394.891 287.617 346.58 239.29 286.965 239.29ZM286.965 437.582C237.058 437.582 196.615 397.138 196.615 347.231C196.615 297.341 237.075 256.881 286.965 256.881C336.856 256.881 377.316 297.341 377.316 347.231C377.332 397.122 336.872 437.582 286.965 437.582Z" fill="#3F444F"/>
<path d="M646.494 336.742L619.651 351.499L592.694 309.084L625.287 297.764L646.494 336.742Z" fill="#292C47"/>
<path d="M644.784 335.471L619.684 349.267L594.47 309.605L624.961 299.018L644.784 335.471Z" fill="#E2D2CA"/>
<path d="M653.986 328.06C653.986 328.06 649.312 325.828 647.259 324.656C645.207 323.483 639.93 321.887 639.506 321.512C639.083 321.137 623.87 320.193 622.941 319.395C622.013 318.596 621.117 321.268 625.059 322.131C629 322.994 634.49 325.112 634.783 326.643C635.076 328.19 630.727 328.549 630.287 329.819C629.847 331.09 630.417 330.796 631.036 331.073C631.655 331.35 636.216 328.825 638.203 329.542C640.207 330.259 643.269 329.265 644.8 329.786C646.331 330.308 653.791 332.816 653.791 332.816L653.986 328.06Z" fill="#EEA886"/>
<path d="M645.549 331.35L643.139 330.455C643.139 330.455 646.136 323.402 647.455 323.581C648.97 323.776 650.843 324.281 650.843 324.281L645.549 331.35Z" fill="#EAD8CF"/>
<path d="M644.996 332.572C645.306 332.344 650.111 323.125 650.111 323.125L660.388 324.526L654.834 335.455L644.996 332.572Z" fill="#DA9B5B"/>
<path d="M618.332 346.172C618.332 346.172 614.406 342.638 612.5 341.156C610.595 339.673 607.044 335.324 606.506 335.08C605.985 334.819 599.177 320.861 598.069 320.29C596.961 319.737 599.112 317.847 601.473 321.235C603.819 324.607 607.94 328.956 609.52 328.646C611.083 328.337 609.731 324.086 610.758 323.173C611.784 322.261 611.735 322.913 612.24 323.385C612.745 323.858 612.142 329.135 613.592 330.747C615.041 332.36 615.302 335.618 616.393 336.855C617.485 338.093 622.746 344.153 622.746 344.153L618.332 346.172Z" fill="#EEA886"/>
<path d="M702.867 534.985C702.867 534.985 703.714 540.881 703.828 541.761C703.942 542.64 713.275 541.24 713.275 541.24L714.025 534.219C714.025 534.219 704.024 534.154 702.867 534.985Z" fill="#424773"/>
<path d="M703.715 541.012C703.715 541.012 700.751 544.562 697.9 546.11C695.033 547.657 690.538 548.276 688.844 549.872C687.622 551.029 684.397 556.013 696.288 555.915C708.178 555.817 713.895 556.616 715.182 554.71C716.452 552.804 713.341 540.621 713.341 540.621C713.341 540.621 710.523 541.631 703.715 541.012Z" fill="#292C47"/>
<path d="M635.956 534.985C635.956 534.985 636.803 540.881 636.917 541.761C637.015 542.64 646.364 541.24 646.364 541.24L647.113 534.219C647.113 534.219 637.129 534.154 635.956 534.985Z" fill="#424773"/>
<path d="M636.803 541.012C636.803 541.012 633.839 544.563 630.988 546.11C628.121 547.657 617.599 548.928 615.905 550.524C614.684 551.68 612.648 556.339 629.376 555.899C641.25 555.59 646.983 556.599 648.27 554.694C649.54 552.788 646.429 540.604 646.429 540.604C646.429 540.604 643.774 541.696 636.803 541.012Z" fill="#292C47"/>
<path d="M695.13 383.57C695.13 383.57 703.91 397.513 703.258 410.104C702.607 422.711 706.434 436.458 707.754 449.635C709.22 464.311 715.23 499.053 715.458 506.904C715.67 514.755 714.53 539.823 714.53 539.823L702.493 540.1C702.493 540.1 692.378 479.361 689.772 473.155C687.149 466.966 674.168 422.776 673.728 417.824C673.272 412.856 695.13 383.57 695.13 383.57Z" fill="#292C47"/>
<path d="M648.937 385.443C648.937 385.443 642.324 419.991 641.445 427.695C640.565 435.416 639.995 465.027 639.555 469.849C639.116 474.67 636.64 532.933 634.311 540.1H649.703C649.703 540.1 661.512 497.75 661.512 477.716C661.512 457.681 670.633 434.145 676.53 420.935C682.426 407.709 695.912 407.4 699.528 382.87C699.545 382.854 653.84 377.674 648.937 385.443Z" fill="#292C47"/>
<path d="M680.488 266.361C680.488 266.361 668.711 261.963 663.287 270.921C657.863 279.88 658.385 297.829 664.314 300.045C670.259 302.26 679.168 301.103 682.214 295.484C685.26 289.881 687.997 281.769 687.866 276.345C687.72 270.921 683.582 267.924 680.488 266.361Z" fill="#EEA886"/>
<path d="M665.584 300.452C665.584 300.452 666.073 303.628 665.258 305.192C664.444 306.755 680.52 306.804 680.52 306.804C680.52 306.804 681.824 298.285 684.299 291.086C686.775 283.887 665.584 300.452 665.584 300.452Z" fill="#EEA886"/>
<path d="M684.299 291.086C684.299 291.086 683.192 292.91 678.664 292.21C674.135 291.493 668.614 285.483 666.724 284.815C664.835 284.147 664.819 283.04 664.819 283.04L663.63 284.766L661.626 284.896C661.626 284.896 663.45 279.505 660.698 277.306C657.929 275.107 663.564 259.861 678.077 264.943C678.077 264.943 689.235 268.022 688.827 274.358C688.42 280.71 686.808 287.926 684.299 291.086Z" fill="#3A3F47"/>
<path d="M664.313 305.012C664.313 305.012 664.362 302.015 665.714 301.738C667.066 301.445 680.683 300.142 682.361 300.793V304.279C682.361 304.279 679.152 306.25 664.313 305.012Z" fill="#E2D2CA"/>
<path d="M665.128 280.727C665.388 279.668 668.092 276.622 669.118 279.88C670.161 283.137 667.555 287.519 666.105 287.144C664.655 286.77 664.476 283.43 665.128 280.727Z" fill="#EEA886"/>
<path d="M610.27 340.374H610.286C610.204 340.407 610.188 340.407 610.27 340.374Z" fill="#323657"/>
<path d="M705.034 416.782C705.034 416.782 697.818 418.899 685.488 420.268C673.174 421.62 642.389 419.779 642.21 418.329C642.015 416.88 648.823 364.155 648.449 361.435C648.058 358.715 647.846 349.039 647.846 349.039C647.699 351.694 644.996 362.526 641.738 368.422C640.565 370.556 636.607 377.234 634.701 375.72C625.482 368.357 611.214 340.619 610.302 340.39C611.067 340.065 617.061 337.296 617.908 337.019C618.641 336.775 625.303 343.811 629.326 348.176C631.118 350.131 632.405 351.532 632.405 351.532C633.561 348.909 637.812 332.426 639.132 326.708C642.096 313.841 641.64 313.303 641.64 313.303C650.648 310.583 664.33 305.029 664.33 305.029L682.377 304.296C682.377 304.296 698.942 307.944 705.457 310.893C706.076 311.169 706.076 325.666 707.77 329.477L702.362 340.879C702.362 340.879 699.235 363.487 698.584 373.537C698.29 378.114 705.034 416.782 705.034 416.782Z" fill="#323657"/>
<path d="M708.52 348.257C708.048 349.772 705.914 351.059 704.513 351.629C703.617 351.987 702.624 352.101 701.63 351.922L700.93 351.792L688.567 349.495C688.567 349.495 685.863 318.336 705.458 310.86C705.963 311.039 712.853 334.315 708.52 348.257Z" fill="#323657"/>
<path d="M704.513 351.629C703.617 351.988 702.624 352.102 701.63 351.922L700.93 351.792L702.151 335.862L704.513 351.629Z" fill="#252840"/>
<path d="M632.389 351.515L630.874 357.916C630.874 357.916 629.229 351.499 629.311 348.16C631.119 350.098 632.389 351.515 632.389 351.515Z" fill="#252840"/>
<path d="M683.843 267.419C683.843 267.419 699.284 265.644 684.103 291.428L683.843 267.419Z" fill="#3A3F47"/>
<path d="M605.106 306.804L603.526 304.117L615.889 299.849L617.453 302.52L605.106 306.804Z" fill="#292C47"/>
<defs>
<linearGradient id="paint0_linear_222_10317" x1="355.759" y1="498.3" x2="355.759" y2="381.538" gradientUnits="userSpaceOnUse">
<stop stop-color="#D5E4FF"/>
<stop offset="1" stop-color="#EDFFFE"/>
</linearGradient>
<linearGradient id="paint1_linear_222_10317" x1="573.605" y1="187.949" x2="607.572" y2="100.503" gradientUnits="userSpaceOnUse">
<stop offset="0.00518135" stop-color="#3C6127"/>
<stop offset="1" stop-color="#639C38"/>
</linearGradient>
<linearGradient id="paint2_linear_222_10317" x1="544.084" y1="193.27" x2="661.599" y2="72.7761" gradientUnits="userSpaceOnUse">
<stop offset="0.00518135" stop-color="#3C6127"/>
<stop offset="1" stop-color="#639C38"/>
</linearGradient>
<linearGradient id="paint3_linear_222_10317" x1="242.753" y1="0.675626" x2="564.174" y2="578.363" gradientUnits="userSpaceOnUse">
<stop stop-color="#D5E4FF"/>
<stop offset="1" stop-color="#EDFFFE"/>
</linearGradient>
<linearGradient id="paint4_linear_222_10317" x1="151.895" y1="267.757" x2="452.705" y2="267.757" gradientUnits="userSpaceOnUse">
<stop stop-color="#FFC05C"/>
<stop offset="1" stop-color="#FF3857"/>
</linearGradient>
<linearGradient id="paint5_linear_222_10317" x1="151.895" y1="259.617" x2="452.864" y2="259.617" gradientUnits="userSpaceOnUse">
<stop stop-color="#40D5E6"/>
<stop offset="1" stop-color="#5577FF"/>
</linearGradient>
<linearGradient id="paint6_linear_222_10317" x1="346.449" y1="374.564" x2="59.3695" y2="374.564" gradientUnits="userSpaceOnUse">
<stop stop-color="#40D5E6"/>
<stop offset="1" stop-color="#5577FF"/>
</linearGradient>
<linearGradient id="paint7_linear_222_10317" x1="346.448" y1="388.558" x2="59.3692" y2="388.558" gradientUnits="userSpaceOnUse">
<stop stop-color="#40D5E6"/>
<stop offset="1" stop-color="#5577FF"/>
</linearGradient>
<linearGradient id="paint8_linear_222_10317" x1="346.447" y1="402.552" x2="59.3705" y2="402.552" gradientUnits="userSpaceOnUse">
<stop stop-color="#40D5E6"/>
<stop offset="1" stop-color="#5577FF"/>
</linearGradient>
<linearGradient id="paint9_linear_222_10317" x1="495.632" y1="371.565" x2="651.118" y2="371.565" gradientUnits="userSpaceOnUse">
<stop stop-color="#40D5E6"/>
<stop offset="1" stop-color="#5577FF"/>
</linearGradient>
<linearGradient id="paint10_linear_222_10317" x1="536.654" y1="189.07" x2="536.654" y2="304.186" gradientUnits="userSpaceOnUse">
<stop stop-color="#40D5E6"/>
<stop offset="1" stop-color="#5577FF"/>
</linearGradient>
<linearGradient id="paint11_linear_222_10317" x1="536.575" y1="189.068" x2="536.575" y2="304.187" gradientUnits="userSpaceOnUse">
<stop stop-color="#40D5E6"/>
<stop offset="1" stop-color="#5577FF"/>
</linearGradient>
<linearGradient id="paint12_linear_222_10317" x1="536.574" y1="210.953" x2="536.574" y2="304.791" gradientUnits="userSpaceOnUse">
<stop stop-color="#40D5E6"/>
<stop offset="1" stop-color="#5577FF"/>
</linearGradient>
<linearGradient id="paint13_linear_222_10317" x1="-0.00195458" y1="386.622" x2="176.93" y2="386.622" gradientUnits="userSpaceOnUse">
<stop stop-color="#FF9F55"/>
<stop offset="1" stop-color="#FFD255"/>
</linearGradient>
</defs>
</svg>
